<svg width="405" height="45" viewBox="0 0 405 45" fill="none" xmlns="http://www.w3.org/2000/svg">
<path d="M218.439 7.13645C218.07 7.17718 217.723 7.28847 217.416 7.46397C217.109 7.63948 216.849 7.87576 216.65 8.15932C216.452 8.44289 216.319 8.76819 216.259 9.11665C216.199 9.4651 216.213 9.82989 216.301 10.1902L217.915 16.8138L224.691 16.0651C225.435 15.9829 226.079 15.6149 226.48 15.0422C226.881 14.4696 227.007 13.739 226.829 13.0114C226.652 12.2837 226.186 11.6186 225.534 11.1622C224.883 10.7058 224.098 10.4956 223.354 10.5779L222.191 10.7064L221.914 9.56994C221.827 9.20964 221.667 8.86089 221.445 8.5436C221.223 8.22632 220.942 7.94671 220.62 7.72074C220.297 7.49477 219.938 7.32686 219.564 7.22661C219.19 7.12636 218.808 7.09572 218.439 7.13645Z" stroke="#3D1414" stroke-width="2" stroke-linecap="round" stroke-linejoin="round"/>
<path d="M227.407 0.799634C227.142 0.813467 226.895 0.8771 226.68 0.986897C226.465 1.09669 226.286 1.25051 226.154 1.43955C226.022 1.62859 225.938 1.84917 225.909 2.08868C225.879 2.32819 225.904 2.58195 225.981 2.83546L227.407 7.49601L232.274 7.24166C232.809 7.21372 233.259 6.98353 233.526 6.60174C233.794 6.21995 233.856 5.71782 233.699 5.20583C233.543 4.69384 233.18 4.21392 232.691 3.87164C232.203 3.52937 231.535 3.47206 231 3.5L229.634 3.87164L229.83 2.83546C229.753 2.58195 229.807 2.12293 229.634 1.89401C229.461 1.66508 229.247 1.46003 229.005 1.29055C228.763 1.12108 228.497 0.990493 228.223 0.906261C227.949 0.822028 227.671 0.785796 227.407 0.799634Z" stroke="#3D1414" stroke-linecap="round" stroke-linejoin="round"/>
<path fill-rule="evenodd" clip-rule="evenodd" d="M202.359 16.3024C209.887 6.22739 227.634 18.4147 202.359 35.6514C177.084 18.4164 195.569 6.22738 202.359 16.3024Z" fill="#3D1414"/>
<path d="M63.1132 16.5L66 19.3868L68.8868 16.5L66 13.6132L63.1132 16.5ZM134.887 16.5L132 13.6132L129.113 16.5L132 19.3868L134.887 16.5ZM66 17H132V16H66V17Z" fill="#3D1414"/>
<path d="M271.113 16.5L274 19.3868L276.887 16.5L274 13.6132L271.113 16.5ZM342.887 16.5L340 13.6132L337.113 16.5L340 19.3868L342.887 16.5ZM274 17H340V16H274V17Z" fill="#3D1414"/>
<path d="M83.1132 21.5L86 24.3868L88.8868 21.5L86 18.6132L83.1132 21.5ZM154.887 21.5L152 18.6132L149.113 21.5L152 24.3868L154.887 21.5ZM86 22H152V21H86V22Z" fill="#3D1414"/>
<path d="M251.113 21.5L254 24.3868L256.887 21.5L254 18.6132L251.113 21.5ZM322.887 21.5L320 18.6132L317.113 21.5L320 24.3868L322.887 21.5ZM254 22H320V21H254V22Z" fill="#3D1414"/>
<path d="M396.113 4.80633C395.906 4.86011 395.704 4.95543 395.52 5.08684C395.336 5.21826 395.173 5.3832 395.041 5.57224C394.908 5.76128 394.809 5.97073 394.749 6.18862C394.688 6.40651 394.667 6.62858 394.688 6.84215L395.065 10.7683L398.883 9.77962C399.303 9.671 399.688 9.39549 399.956 9.0137C400.223 8.63191 400.35 8.17511 400.309 7.74379C400.267 7.31247 400.061 6.94197 399.735 6.71379C399.409 6.4856 398.9 6.53918 398.48 6.6478L397.361 7.19265L397.676 6.23933C397.656 6.02576 397.769 5.60862 397.671 5.43189C397.573 5.25516 397.439 5.10604 397.278 4.99306C397.116 4.88007 396.93 4.80543 396.731 4.77339C396.531 4.74135 396.321 4.75254 396.113 4.80633Z" stroke="#652424" stroke-linecap="round" stroke-linejoin="round"/>
<path d="M362.263 7.7438C362.242 7.95736 362.263 8.17943 362.323 8.39732C362.384 8.61522 362.483 8.82466 362.615 9.01371C362.748 9.20275 362.911 9.36769 363.095 9.49911C363.279 9.63052 363.48 9.72584 363.688 9.77962L367.506 10.7683L367.883 6.84216C367.925 6.41084 367.798 5.95404 367.53 5.57225C367.263 5.19046 366.877 4.91495 366.458 4.80633C366.038 4.69771 365.619 4.76489 365.294 4.99307C364.968 5.22125 364.844 5.71837 364.802 6.14969L364.932 7.38739L364.144 6.76551C363.936 6.71173 363.583 6.46208 363.383 6.49412C363.183 6.52616 362.998 6.6008 362.836 6.71379C362.675 6.82677 362.541 6.97589 362.443 7.15262C362.344 7.32935 362.283 7.53023 362.263 7.7438Z" stroke="#652424" stroke-linecap="round" stroke-linejoin="round"/>
<path d="M379.225 4.82564C379.086 4.98882 378.975 5.18255 378.9 5.39576C378.824 5.60898 378.786 5.8375 378.786 6.06828C378.786 6.29906 378.824 6.52758 378.9 6.74079C378.975 6.95401 379.086 7.14774 379.225 7.31092L381.786 10.3109L384.346 7.31092C384.628 6.98135 384.786 6.53436 384.786 6.06828C384.786 5.6022 384.628 5.15521 384.346 4.82564C384.065 4.49607 383.683 4.31092 383.286 4.31092C382.888 4.31092 382.501 4.64705 382.22 4.97662L381.616 6.06467L381.327 5.10319C381.188 4.94 381.042 4.533 380.86 4.44469C380.678 4.35637 380.483 4.31091 380.286 4.31091C380.089 4.31091 379.894 4.35637 379.712 4.44469C379.53 4.533 379.364 4.66245 379.225 4.82564Z" stroke="#8A3C3C" stroke-linecap="round" stroke-linejoin="round"/>
<path fill-rule="evenodd" clip-rule="evenodd" d="M381.359 14.3024C388.887 4.22739 406.634 16.4147 381.359 33.6514C356.084 16.4164 374.569 4.22738 381.359 14.3024Z" fill="#3D1414"/>
<line x1="367" y1="1.5" x2="402" y2="1.5" stroke="#3D1414"/>
<line x1="404.5" y1="36" x2="404.5" y2="8" stroke="#3D1414"/>
<line x1="401.5" y1="41" x2="401.5" y2="17" stroke="#3D1414"/>
<line x1="398.5" y1="45" x2="398.5" y2="26" stroke="#3D1414"/>
<line x1="384" y1="35.5" x2="396" y2="35.5" stroke="#3D1414"/>
<line x1="378" y1="38.5" x2="390" y2="38.5" stroke="#3D1414"/>
<path d="M40.1135 4.80633C39.9058 4.86011 39.7042 4.95543 39.5201 5.08684C39.3361 5.21826 39.1732 5.3832 39.0408 5.57224C38.9085 5.76128 38.8092 5.97073 38.7486 6.18862C38.6881 6.40651 38.6675 6.62858 38.688 6.84215L39.0648 10.7683L42.8831 9.77962C43.3026 9.671 43.6884 9.39549 43.9558 9.0137C44.2231 8.63191 44.35 8.17511 44.3086 7.74379C44.2672 7.31247 44.0609 6.94197 43.735 6.71379C43.4091 6.4856 42.8996 6.53918 42.4801 6.6478L41.3613 7.19265L41.6761 6.23933C41.6556 6.02576 41.7695 5.60862 41.671 5.43189C41.5726 5.25516 41.4389 5.10604 41.2776 4.99306C41.1162 4.88007 40.9304 4.80543 40.7306 4.77339C40.5309 4.74135 40.3212 4.75254 40.1135 4.80633Z" stroke="#652424" stroke-linecap="round" stroke-linejoin="round"/>
<path d="M5.26255 7.7438C5.24205 7.95736 5.26266 8.17943 5.3232 8.39732C5.38374 8.61522 5.48304 8.82466 5.61541 9.01371C5.74778 9.20275 5.91063 9.36769 6.09468 9.49911C6.27872 9.63052 6.48035 9.72584 6.68805 9.77962L10.5063 10.7683L10.8832 6.84216C10.9246 6.41084 10.7977 5.95404 10.5303 5.57225C10.263 5.19046 9.87715 4.91495 9.45768 4.80633C9.03822 4.69771 8.61949 4.76489 8.29361 4.99307C7.96773 5.22125 7.84381 5.71837 7.80241 6.14969L7.93174 7.38739L7.14358 6.76551C6.93588 6.71173 6.58283 6.46208 6.3831 6.49412C6.18337 6.52616 5.99752 6.6008 5.83616 6.71379C5.6748 6.82677 5.54109 6.97589 5.44267 7.15262C5.34425 7.32935 5.28304 7.53023 5.26255 7.7438Z" stroke="#652424" stroke-linecap="round" stroke-linejoin="round"/>
<path d="M22.225 4.82564C22.0857 4.98882 21.9752 5.18255 21.8998 5.39576C21.8244 5.60898 21.7856 5.8375 21.7856 6.06828C21.7856 6.29906 21.8244 6.52758 21.8998 6.74079C21.9752 6.95401 22.0857 7.14774 22.225 7.31092L24.7856 10.3109L27.3463 7.31092C27.6276 6.98135 27.7856 6.53436 27.7856 6.06828C27.7856 5.6022 27.6276 5.15521 27.3463 4.82564C27.065 4.49607 26.6835 4.31092 26.2856 4.31092C25.8878 4.31092 25.5012 4.64705 25.2199 4.97662L24.6159 6.06467L24.327 5.10319C24.1877 4.94 24.0417 4.533 23.8597 4.44469C23.6777 4.35637 23.4826 4.31091 23.2857 4.31091C23.0887 4.31091 22.8936 4.35637 22.7116 4.44469C22.5296 4.533 22.3643 4.66245 22.225 4.82564Z" stroke="#8A3C3C" stroke-linecap="round" stroke-linejoin="round"/>
<path fill-rule="evenodd" clip-rule="evenodd" d="M24.359 14.3024C31.8868 4.22739 49.6343 16.4147 24.359 33.6514C-0.9163 16.4164 17.5689 4.22738 24.359 14.3024Z" fill="#3D1414"/>
<line x1="6" y1="1.5" x2="41" y2="1.5" stroke="#3D1414"/>
<line x1="0.5" y1="36" x2="0.5" y2="8" stroke="#3D1414"/>
<line x1="3.5" y1="41" x2="3.5" y2="17" stroke="#3D1414"/>
<line x1="6.5" y1="45" x2="6.5" y2="26" stroke="#3D1414"/>
<line x1="10" y1="35.5" x2="22" y2="35.5" stroke="#3D1414"/>
<line x1="16" y1="38.5" x2="28" y2="38.5" stroke="#3D1414"/>
</svg>
