<svg width="30" height="30" viewBox="0 0 30 30" fill="none" xmlns="http://www.w3.org/2000/svg">
<g clip-path="url(#clip0_3_106)">
<path d="M15 28.125C11.519 28.125 8.18064 26.7422 5.71922 24.2808C3.25781 21.8194 1.875 18.481 1.875 15C1.875 11.519 3.25781 8.18064 5.71922 5.71922C8.18064 3.25781 11.519 1.875 15 1.875C18.481 1.875 21.8194 3.25781 24.2808 5.71922C26.7422 8.18064 28.125 11.519 28.125 15C28.125 18.481 26.7422 21.8194 24.2808 24.2808C21.8194 26.7422 18.481 28.125 15 28.125ZM15 30C18.9782 30 22.7936 28.4196 25.6066 25.6066C28.4196 22.7936 30 18.9782 30 15C30 11.0218 28.4196 7.20644 25.6066 4.3934C22.7936 1.58035 18.9782 0 15 0C11.0218 0 7.20644 1.58035 4.3934 4.3934C1.58035 7.20644 0 11.0218 0 15C0 18.9782 1.58035 22.7936 4.3934 25.6066C7.20644 28.4196 11.0218 30 15 30Z" fill="white"/>
<path d="M21.2157 18.7763C21.3936 18.7343 21.58 18.7454 21.7518 18.8081C21.9236 18.8707 22.0733 18.9823 22.1825 19.1289C22.2917 19.2756 22.3556 19.451 22.3664 19.6335C22.3772 19.816 22.3343 19.9978 22.2432 20.1563C21.5025 21.4392 20.4371 22.5044 19.1541 23.245C17.8711 23.9856 16.4158 24.3753 14.9344 24.375C13.453 24.3753 11.9977 23.9856 10.7147 23.245C9.43173 22.5044 8.36634 21.4392 7.62565 20.1563C7.53448 19.9978 7.49165 19.816 7.50243 19.6335C7.51321 19.451 7.57714 19.2756 7.68634 19.1289C7.79554 18.9823 7.94525 18.8707 8.11703 18.8081C8.28881 18.7454 8.47517 18.7343 8.65315 18.7763H8.66253L8.6944 18.7856L8.82003 18.8138L9.29253 18.9169C9.69565 19.0031 10.2582 19.1194 10.8994 19.2338C12.1988 19.4663 13.7532 19.6875 14.9344 19.6875C16.1157 19.6875 17.6719 19.4663 18.9694 19.2338C19.6654 19.1083 20.3587 18.9683 21.0488 18.8138L21.1744 18.7856L21.2063 18.7781L21.2157 18.7744V18.7763ZM8.91753 8.56125C10.3482 5.89125 16.455 8.33625 10.7025 15C2.27253 12.0075 6.29628 6.94125 8.91753 8.56125ZM21.0825 8.56125C23.7038 6.94125 27.7275 12.0075 19.2975 15C13.5469 8.33625 19.6538 5.89125 21.0825 8.56125Z" fill="white"/>
</g>
<defs>
<clipPath id="clip0_3_106">
<rect width="30" height="30" fill="white"/>
</clipPath>
</defs>
</svg>
