<svg width="25" height="25" viewBox="0 0 25 25" fill="none" xmlns="http://www.w3.org/2000/svg">
<path d="M7.8125 12.5C7.8125 9.91094 11.4734 7.8125 14.0625 7.8125V6.25C12.4049 6.25 10.8152 6.90848 9.64308 8.08058C8.47098 9.25268 7.8125 10.8424 7.8125 12.5Z" fill="white"/>
<path d="M19.2469 4.68751H22.3953C23.8328 4.68751 25 5.85314 25 7.2922V17.7078C25 19.1453 23.8344 20.3125 22.3953 20.3125H19.2469C17.7113 21.3345 15.9071 21.8782 14.0625 21.875C12.2179 21.8782 10.4137 21.3345 8.87813 20.3125H2.60469C1.16719 20.3125 0 19.1469 0 17.7078V7.2922C0 5.8547 1.16563 4.68751 2.60469 4.68751H3.125C3.125 4.27311 3.28962 3.87569 3.58265 3.58266C3.87567 3.28963 4.2731 3.12501 4.6875 3.12501H6.25C6.6644 3.12501 7.06183 3.28963 7.35485 3.58266C7.64788 3.87569 7.8125 4.27311 7.8125 4.68751H8.87813C10.4137 3.66554 12.2179 3.12179 14.0625 3.12501C15.9797 3.12501 17.7609 3.70001 19.2469 4.68751ZM3.125 7.03126C3.125 6.82406 3.04269 6.62535 2.89618 6.47884C2.74966 6.33232 2.55095 6.25001 2.34375 6.25001C2.13655 6.25001 1.93784 6.33232 1.79132 6.47884C1.64481 6.62535 1.5625 6.82406 1.5625 7.03126C1.5625 7.23846 1.64481 7.43718 1.79132 7.58369C1.93784 7.7302 2.13655 7.81251 2.34375 7.81251C2.55095 7.81251 2.74966 7.7302 2.89618 7.58369C3.04269 7.43718 3.125 7.23846 3.125 7.03126ZM21.875 12.5C21.875 10.428 21.0519 8.44087 19.5868 6.97574C18.1216 5.51061 16.1345 4.68751 14.0625 4.68751C11.9905 4.68751 10.0034 5.51061 8.53823 6.97574C7.0731 8.44087 6.25 10.428 6.25 12.5C6.25 14.572 7.0731 16.5592 8.53823 18.0243C10.0034 19.4894 11.9905 20.3125 14.0625 20.3125C16.1345 20.3125 18.1216 19.4894 19.5868 18.0243C21.0519 16.5592 21.875 14.572 21.875 12.5Z" fill="white"/>
</svg>
