<svg width="30" height="30" viewBox="0 0 30 30" fill="none" xmlns="http://www.w3.org/2000/svg">
<path d="M11.25 24.375C11.25 26.4469 9.15 28.125 6.5625 28.125C3.975 28.125 1.875 26.4469 1.875 24.375C1.875 22.3031 3.975 20.625 6.5625 20.625C9.15 20.625 11.25 22.305 11.25 24.375ZM28.125 20.625C28.125 22.6969 26.025 24.375 23.4375 24.375C20.85 24.375 18.75 22.6969 18.75 20.625C18.75 18.5531 20.85 16.875 23.4375 16.875C26.025 16.875 28.125 18.5531 28.125 20.625Z" fill="black"/>
<path fill-rule="evenodd" clip-rule="evenodd" d="M26.25 20.625V3.75H28.125V20.625H26.25ZM11.25 5.625V24.375H9.375V5.625H11.25Z" fill="black"/>
<path d="M9.375 5.44687C9.37499 4.98205 9.54764 4.5338 9.85946 4.18907C10.1713 3.84435 10.6 3.62773 11.0625 3.58125L26.0625 2.08125C26.3232 2.05505 26.5866 2.08378 26.8355 2.16561C27.0844 2.24744 27.3135 2.38054 27.5078 2.55632C27.7021 2.73211 27.8575 2.94668 27.9638 3.18619C28.0701 3.4257 28.125 3.68483 28.125 3.94688V5.625L9.375 7.5V5.44687Z" fill="black"/>
</svg>
