<svg width="333" height="21" viewBox="0 0 333 21" fill="none" xmlns="http://www.w3.org/2000/svg">
<line y1="10" x2="132" y2="10" stroke="#3D1414"/>
<path d="M153.742 10.8984H148.992C148.924 10.8151 148.891 10.5911 148.891 10.2266C148.891 9.86198 148.93 9.6276 149.008 9.52344C149.664 9.42969 150.51 9.38281 151.547 9.38281C152.583 9.38281 153.336 9.41146 153.805 9.46875C153.846 9.625 153.867 9.85156 153.867 10.1484C153.867 10.4401 153.826 10.6901 153.742 10.8984ZM159.602 6.47656C159.414 6.65365 159.156 6.78385 158.828 6.86719C157.688 5.41406 156.909 4.52865 156.492 4.21094C156.581 3.95052 156.742 3.7474 156.977 3.60156C157.211 3.45052 157.487 3.36979 157.805 3.35938C158.268 3.38021 158.693 3.88021 159.078 4.85938C159.25 5.29167 159.424 5.83073 159.602 6.47656ZM166.974 16C166.414 14.592 165.966 13.792 163.998 11.088C162.734 9.36 162.254 8.224 162.254 7.056C162.254 5.648 163.47 4.496 164.878 4.496C165.87 4.496 166.782 5.008 167.342 6.048C167.918 5.008 168.83 4.496 169.838 4.496C171.214 4.496 172.462 5.648 172.462 7.056C172.462 8.192 172.062 9.264 170.718 11.104C168.734 13.824 168.254 14.672 167.726 16H166.974ZM167.342 14.608C167.742 13.792 168.446 12.72 169.39 11.424C170.334 10.128 170.926 9.184 171.182 8.624C171.438 8.064 171.566 7.536 171.566 7.056C171.566 6.144 170.766 5.392 169.838 5.392C168.91 5.392 168.126 6.192 167.758 7.52H166.942C166.542 6.08 165.758 5.392 164.878 5.392C163.966 5.392 163.15 6.144 163.15 7.056C163.15 7.52 163.278 8.032 163.518 8.592C163.758 9.152 164.35 10.064 165.278 11.328C166.206 12.576 166.894 13.68 167.342 14.608ZM174.289 6.47656C174.565 5.46094 174.799 4.77604 174.992 4.42188C175.185 4.0625 175.344 3.81771 175.469 3.6875C175.661 3.47917 175.865 3.36979 176.078 3.35938C176.396 3.36979 176.672 3.45052 176.906 3.60156C177.146 3.7474 177.307 3.95052 177.391 4.21094C176.99 4.51823 176.211 5.40365 175.055 6.86719C174.732 6.78385 174.477 6.65365 174.289 6.47656ZM183.414 10.8984H178.664C178.596 10.8151 178.562 10.5911 178.562 10.2266C178.562 9.86198 178.602 9.6276 178.68 9.52344C179.336 9.42969 180.182 9.38281 181.219 9.38281C182.255 9.38281 183.008 9.41146 183.477 9.46875C183.518 9.625 183.539 9.85156 183.539 10.1484C183.539 10.4401 183.497 10.6901 183.414 10.8984Z" fill="#3D1414"/>
<line x1="201" y1="10" x2="333" y2="10" stroke="#3D1414"/>
</svg>
