<svg width="25" height="25" viewBox="0 0 25 25" fill="none" xmlns="http://www.w3.org/2000/svg">
<path d="M13.6047 2.34374C13.3117 2.05082 12.9143 1.88626 12.5 1.88626C12.0857 1.88626 11.6883 2.05082 11.3953 2.34374L1.00939 12.7281C0.936748 12.8008 0.879129 12.887 0.839818 12.9819C0.800507 13.0768 0.780273 13.1785 0.780273 13.2812C0.780273 13.384 0.800507 13.4857 0.839818 13.5806C0.879129 13.6755 0.936748 13.7617 1.00939 13.8344C1.15608 13.9811 1.35505 14.0635 1.56251 14.0635C1.66524 14.0635 1.76695 14.0432 1.86186 14.0039C1.95676 13.9646 2.043 13.907 2.11564 13.8344L3.12501 12.8234V21.0937C3.12501 21.7153 3.37194 22.3115 3.81148 22.751C4.25102 23.1906 4.84716 23.4375 5.46876 23.4375H19.5313C20.1529 23.4375 20.749 23.1906 21.1885 22.751C21.6281 22.3115 21.875 21.7153 21.875 21.0937V12.8234L22.8844 13.8344C23.0311 13.9811 23.23 14.0635 23.4375 14.0635C23.645 14.0635 23.8439 13.9811 23.9906 13.8344C24.1373 13.6877 24.2197 13.4887 24.2197 13.2812C24.2197 13.0738 24.1373 12.8748 23.9906 12.7281L20.3125 9.05155V3.90624C20.3125 3.69904 20.2302 3.50033 20.0837 3.35381C19.9372 3.2073 19.7385 3.12499 19.5313 3.12499H17.9688C17.7616 3.12499 17.5628 3.2073 17.4163 3.35381C17.2698 3.50033 17.1875 3.69904 17.1875 3.90624V5.92655L13.6047 2.34374ZM20.3125 11.2609V21.0937C20.3125 21.3009 20.2302 21.4997 20.0837 21.6462C19.9372 21.7927 19.7385 21.875 19.5313 21.875H5.46876C5.26156 21.875 5.06285 21.7927 4.91633 21.6462C4.76982 21.4997 4.68751 21.3009 4.68751 21.0937V11.2609L12.5 3.44843L20.3125 11.2609Z" fill="white"/>
</svg>
