<svg width="25" height="25" viewBox="0 0 25 25" fill="none" xmlns="http://www.w3.org/2000/svg">
<path d="M25 11.7204C25 18.1933 19.4031 23.4407 12.5 23.4407C11.2619 23.4437 10.0288 23.2714 8.83281 22.9284C7.92031 23.424 5.825 24.375 2.3 24.9945C1.9875 25.0481 1.75 24.6998 1.87344 24.3884C2.42656 22.9886 2.92656 21.1234 3.07656 19.4223C1.1625 17.3629 0 14.6672 0 11.7204C0 5.24737 5.59687 0 12.5 0C19.4031 0 25 5.24737 25 11.7204ZM7.03125 6.69735C6.82405 6.69735 6.62534 6.78555 6.47882 6.94255C6.33231 7.09955 6.25 7.31249 6.25 7.53452C6.25 7.75655 6.33231 7.96948 6.47882 8.12648C6.62534 8.28348 6.82405 8.37169 7.03125 8.37169H17.9688C18.176 8.37169 18.3747 8.28348 18.5212 8.12648C18.6677 7.96948 18.75 7.75655 18.75 7.53452C18.75 7.31249 18.6677 7.09955 18.5212 6.94255C18.3747 6.78555 18.176 6.69735 17.9688 6.69735H7.03125ZM7.03125 10.8832C6.82405 10.8832 6.62534 10.9714 6.47882 11.1284C6.33231 11.2854 6.25 11.4983 6.25 11.7204C6.25 11.9424 6.33231 12.1553 6.47882 12.3123C6.62534 12.4693 6.82405 12.5575 7.03125 12.5575H17.9688C18.176 12.5575 18.3747 12.4693 18.5212 12.3123C18.6677 12.1553 18.75 11.9424 18.75 11.7204C18.75 11.4983 18.6677 11.2854 18.5212 11.1284C18.3747 10.9714 18.176 10.8832 17.9688 10.8832H7.03125ZM7.03125 15.069C6.82405 15.069 6.62534 15.1572 6.47882 15.3142C6.33231 15.4712 6.25 15.6842 6.25 15.9062C6.25 16.1282 6.33231 16.3412 6.47882 16.4982C6.62534 16.6552 6.82405 16.7434 7.03125 16.7434H13.2812C13.4885 16.7434 13.6872 16.6552 13.8337 16.4982C13.9802 16.3412 14.0625 16.1282 14.0625 15.9062C14.0625 15.6842 13.9802 15.4712 13.8337 15.3142C13.6872 15.1572 13.4885 15.069 13.2812 15.069H7.03125Z" fill="white"/>
</svg>
